<svg version="1.1" id="Layer_1" xmlns="http://www.w3.org/2000/svg" xmlns:xlink="http://www.w3.org/1999/xlink" x="0px" y="0px"
	 width="100%" viewBox="0 0 400 186" enable-background="new 0 0 400 186" xml:space="preserve">
<path fill="#FFFFFFF" opacity="1.000000" stroke="none" 
	d="
M249.000000,187.000000 
	C166.000000,187.000000 83.500000,187.000000 1.000000,187.000000 
	C1.000000,125.000000 1.000000,63.000000 1.000000,1.000000 
	C134.333328,1.000000 267.666656,1.000000 401.000000,1.000000 
	C401.000000,63.000000 401.000000,125.000000 401.000000,187.000000 
	C350.500000,187.000000 300.000000,187.000000 249.000000,187.000000 
M98.930542,145.937729 
	C98.953690,141.173782 99.104362,136.406006 98.961609,131.647034 
	C98.836494,127.475960 98.382019,123.314766 97.142517,119.066162 
	C93.395569,119.087700 89.648613,119.109230 85.229156,119.625175 
	C85.156319,129.741943 85.064041,139.858688 85.053749,149.975525 
	C85.053055,150.660538 85.669678,151.346161 86.000755,152.834167 
	C86.295670,159.634949 91.087814,164.381775 97.828911,165.025116 
	C105.477943,165.755112 111.695297,163.448730 116.249390,156.480515 
	C117.154602,159.341660 117.829308,161.474228 118.578072,163.840881 
	C122.162560,163.840881 125.618782,163.840881 129.476044,163.750092 
	C129.731812,163.592773 129.865372,163.364090 129.983047,162.123810 
	C129.947571,148.062653 129.912109,134.001511 129.770020,119.543358 
	C129.614334,119.282242 129.384506,119.153976 128.149353,119.070221 
	C124.398224,119.084709 120.647095,119.099205 116.185516,119.569038 
	C116.181847,128.310638 116.178185,137.052231 116.019043,146.543686 
	C114.193840,151.955963 111.164658,154.157272 105.984550,153.956696 
	C101.381783,153.778503 99.234161,151.205353 98.930542,145.937729 
M205.932510,113.999496 
	C214.797897,113.999496 223.663284,113.999496 232.636932,113.999496 
	C232.805450,112.835373 232.977798,112.209961 232.972717,111.585983 
	C232.944519,108.122437 232.873215,104.659256 233.547012,101.021042 
	C239.383682,96.821304 245.946487,93.334038 250.908844,88.276443 
	C261.904236,77.070053 268.782410,63.383667 272.133850,47.943623 
	C274.558136,36.775108 275.402466,25.628044 274.190491,14.191940 
	C273.739838,9.939799 272.517853,9.009519 268.580658,8.916265 
	C248.937881,8.451018 230.435226,12.480243 213.127457,21.919163 
	C200.698120,28.697592 190.686295,37.928082 184.167740,50.558544 
	C176.291199,65.820320 176.289383,81.744499 180.284164,98.259407 
	C178.145386,98.188782 176.006622,98.118156 174.237549,97.275772 
	C176.548126,86.701065 174.518478,76.493439 169.926453,67.154816 
	C158.793167,44.513512 131.810989,33.183949 108.498466,35.439636 
	C108.084671,36.455765 107.626633,37.490589 107.247490,38.553555 
	C107.084045,39.011810 107.036362,39.526402 107.016541,40.018639 
	C106.380829,55.808601 106.971909,71.312454 115.156227,85.605553 
	C121.281639,96.302979 129.586761,104.079430 141.410675,108.034569 
	C150.831146,111.185730 160.291260,109.798714 169.920517,109.785461 
	C169.920517,114.980911 169.920517,120.176361 169.920517,126.369682 
	C168.289368,125.129074 167.692566,124.832191 167.310364,124.361183 
	C160.363068,115.799423 148.623795,115.178833 140.693710,122.757584 
	C133.481384,129.650345 133.093781,138.537399 134.172287,147.255249 
	C135.470871,157.752151 143.331314,165.109909 153.328339,165.204742 
	C160.477020,165.272583 165.122879,162.178375 169.147339,156.791656 
	C169.797989,158.035629 170.541458,158.855194 170.643494,159.748062 
	C171.406998,166.430038 176.528229,163.687103 179.935715,163.819199 
	C184.312531,163.988892 182.914719,160.179947 182.934174,157.866943 
	C183.082535,140.235062 183.072632,122.601845 183.679031,105.177788 
	C185.697754,104.091911 187.716476,103.006035 189.898285,102.723900 
	C189.932190,119.675179 189.848953,136.627792 190.040771,153.577286 
	C190.170822,165.066467 187.350098,163.970779 201.259949,164.002151 
	C204.099365,164.008545 205.045288,162.692657 205.005615,160.032455 
	C204.928680,154.876144 205.147766,149.712173 204.958511,144.561890 
	C204.829681,141.056549 206.240524,139.807327 209.647308,139.964676 
	C213.631699,140.148682 217.631393,140.013321 221.624359,139.996460 
	C228.002045,139.969543 228.368744,139.433487 228.008240,133.187103 
	C227.669144,127.311958 223.300125,129.309006 220.213028,129.045517 
	C215.452713,128.639206 208.962326,130.294083 206.376938,127.794556 
	C203.849487,125.351051 205.294434,118.798714 205.932510,113.999496 
M375.229187,99.625557 
	C375.153351,105.413155 375.173615,111.204269 374.962311,116.986916 
	C374.852234,119.999199 374.333923,122.996559 373.704102,125.397995 
	C368.777985,118.347633 361.640198,116.453728 353.917358,118.408752 
	C346.649200,120.248672 342.118866,125.954430 340.583191,133.142868 
	C339.566589,137.901794 339.513672,143.074753 340.126495,147.923706 
	C340.997070,154.812210 344.656281,160.583267 351.173248,163.412613 
	C357.666656,166.231735 364.444489,166.305130 370.450836,161.686752 
	C372.192780,160.347382 373.548248,158.505386 375.286407,156.677673 
	C376.124268,159.290726 376.812500,161.437103 377.586212,163.850098 
	C381.138550,163.850098 384.605621,163.850098 388.698822,163.313156 
	C388.778076,142.481567 388.864105,121.649994 388.900177,100.818336 
	C388.901123,100.262650 388.360779,99.706032 387.142395,99.067001 
	C383.395508,99.088448 379.648621,99.109886 375.229187,99.625557 
M79.331375,128.278015 
	C66.152138,128.203583 52.972919,128.118637 39.793583,128.091660 
	C39.244415,128.090530 38.694138,128.630539 38.065975,129.777313 
	C38.385880,132.185287 38.705780,134.593246 39.439869,137.764313 
	C47.958511,137.834534 56.477154,137.904739 64.989159,138.785599 
	C64.708412,149.488525 54.872864,154.665436 44.851227,153.444214 
	C29.800295,151.610123 24.048401,137.740540 29.293365,122.845680 
	C33.477959,110.962105 48.476250,107.681274 56.487961,117.373322 
	C60.668037,122.430092 64.426163,121.675850 69.394394,120.423424 
	C73.074852,119.495613 73.492561,117.942986 71.958458,114.789932 
	C67.783043,106.208206 60.745197,101.813431 51.671616,99.677727 
	C35.967949,95.981438 19.251385,104.972961 14.418558,120.141861 
	C12.383489,126.529381 12.124269,132.940414 12.815319,139.714188 
	C14.175875,153.050568 27.433981,165.864975 40.922474,166.117722 
	C51.687740,166.319427 60.708439,163.013977 67.497993,153.254456 
	C68.361198,157.284180 69.033669,160.423477 69.716675,163.611969 
	C70.750221,163.748779 71.559639,163.915344 72.375191,163.954636 
	C79.977089,164.321014 80.004196,164.314636 79.989273,156.911636 
	C79.970467,147.580612 79.902374,138.249695 79.331375,128.278015 
M326.402161,120.906151 
	C322.508118,119.726181 318.680511,118.199799 314.706360,117.437347 
	C306.061401,115.778793 298.383209,118.410339 292.696411,124.894653 
	C286.777283,131.643799 285.404419,140.054382 287.758972,148.624298 
	C292.159515,164.640915 307.710968,168.354935 321.743469,164.246536 
	C330.696381,161.625381 335.511719,154.779663 336.784668,146.158340 
	C338.224457,136.406998 335.991638,127.368263 326.402161,120.906151 
M234.900360,143.163483 
	C234.220673,148.833694 236.334030,153.577316 240.068375,157.595505 
	C248.237640,166.385666 261.716278,168.404663 272.857056,162.544540 
	C280.101501,158.733963 287.183746,149.073654 283.944153,135.264481 
	C280.084686,118.813118 261.799377,113.310204 248.358444,119.199852 
	C238.420761,123.554398 234.332031,131.710617 234.900360,143.163483 
M294.051147,174.475601 
	C291.184235,178.298676 291.437622,181.483994 294.767120,181.637161 
	C296.402924,181.712433 299.240662,180.376694 299.585266,179.137497 
	C300.590729,175.521469 297.892090,174.331909 294.051147,174.475601 
M318.142853,175.596115 
	C318.347290,177.423279 317.980743,179.708511 318.952606,180.920029 
	C319.624359,181.757385 323.149841,181.739700 323.617981,180.990540 
	C324.446472,179.664566 324.629578,176.905258 323.753021,175.840164 
	C322.914398,174.821213 320.383911,175.194672 318.142853,175.596115 
M196.087784,180.671692 
	C196.389862,179.531693 196.691940,178.391693 196.994019,177.251694 
	C194.946930,180.880493 193.102615,179.846161 190.622742,175.750351 
	C191.406677,180.203064 191.917206,182.587585 196.087784,180.671692 
M186.250092,179.752380 
	C185.313873,179.275421 184.377640,178.798477 183.441422,178.321533 
	C183.302750,179.226990 183.164078,180.132446 183.025406,181.037903 
	C184.079025,180.802170 185.132645,180.566422 186.250092,179.752380 
M242.520081,180.155716 
	C243.111176,180.358643 243.702271,180.561584 244.293381,180.764511 
	C244.390900,179.379837 244.488419,177.995178 244.585938,176.610504 
	C244.207504,176.577469 243.829071,176.544418 243.450623,176.511383 
	C243.132050,177.533295 242.813492,178.555206 242.520081,180.155716 
M259.683014,178.447952 
	C259.809387,179.378510 259.935760,180.309082 260.062164,181.239639 
	C260.574219,181.196747 261.086304,181.153839 261.598358,181.110931 
	C261.407898,179.629822 261.217407,178.148712 261.026947,176.667587 
	C260.627930,177.076630 260.228943,177.485672 259.683014,178.447952 
M255.722549,176.216522 
	C255.488480,177.472900 255.254410,178.729279 255.020355,179.985657 
	C255.614136,179.944778 256.207947,179.903900 256.801727,179.863022 
	C256.593872,178.574753 256.386017,177.286484 255.722549,176.216522 
M161.134552,177.153687 
	C161.657578,178.808578 162.180618,180.463470 162.703644,182.118362 
	C163.126999,181.953857 163.550354,181.789352 163.973709,181.624847 
	C163.070480,179.982742 162.167252,178.340637 161.134552,177.153687 
M285.266052,175.087753 
	C283.934509,176.521835 283.934509,176.521835 286.363281,180.761368 
	C286.082092,178.225601 285.913605,176.706421 285.266052,175.087753 
M214.266098,175.087769 
	C212.934540,176.521805 212.934540,176.521805 215.363144,180.761185 
	C215.079773,178.205246 214.912491,176.696243 214.266098,175.087769 
M232.372192,180.164337 
	C232.489639,180.281281 232.588318,180.440689 232.729797,180.503220 
	C232.871094,180.565659 233.200089,180.540588 233.200272,180.537674 
	C233.283951,179.264221 233.346573,177.989395 233.409515,176.714600 
	C232.999191,176.749008 232.588852,176.783417 232.178528,176.817841 
	C232.178528,177.767349 232.178528,178.716843 232.372192,180.164337 
M239.429581,179.133118 
	C239.663391,178.139053 239.897217,177.145004 240.131027,176.150940 
	C239.530121,176.142853 238.929214,176.134766 238.328293,176.126678 
	C238.616760,177.251312 238.905212,178.375931 239.429581,179.133118 
M88.033951,178.855423 
	C88.096245,179.161194 88.134209,179.475311 88.234840,179.767899 
	C88.267303,179.862274 88.464600,179.899948 88.586479,179.963577 
	C88.847382,178.891220 89.108276,177.818863 89.369179,176.746506 
	C89.030830,176.691330 88.692474,176.636139 88.354126,176.580963 
	C88.245850,177.178329 88.137581,177.775711 88.033951,178.855423 
M82.034843,178.112793 
	C82.142929,178.701797 82.251015,179.290787 82.359100,179.879791 
	C82.597336,179.788635 82.835564,179.697464 83.073799,179.606308 
	C82.741280,178.970840 82.408760,178.335388 82.034843,178.112793 
M133.779633,181.007568 
	C134.176208,180.235229 134.572784,179.462891 134.969360,178.690552 
	C134.609756,178.544891 134.250153,178.399231 133.890533,178.253571 
	C133.622498,179.158356 133.354462,180.063141 133.779633,181.007568 
M42.212452,181.232681 
	C41.622627,181.122177 41.032803,181.011673 40.442978,180.901169 
	C40.412479,181.166199 40.381981,181.431229 40.351482,181.696259 
	C40.983624,181.650421 41.615761,181.604584 42.212452,181.232681 
M225.093231,180.934372 
	C224.862335,180.623169 224.685165,180.222702 224.378159,180.037888 
	C224.221344,179.943466 223.831802,180.235641 223.547440,180.353058 
	C223.854965,180.571045 224.162491,180.789017 225.093231,180.934372 
z"/>
<path fill="#39B54A" opacity="1.000000" stroke="none" 
	d="
M189.735184,101.920158 
	C187.716476,103.006035 185.697754,104.091911 183.373169,104.659073 
	C182.366455,102.067421 181.665604,99.994484 180.964752,97.921547 
	C176.289383,81.744499 176.291199,65.820320 184.167740,50.558544 
	C190.686295,37.928082 200.698120,28.697592 213.127457,21.919163 
	C230.435226,12.480243 248.937881,8.451018 268.580658,8.916265 
	C272.517853,9.009519 273.739838,9.939799 274.190491,14.191940 
	C275.402466,25.628044 274.558136,36.775108 272.133850,47.943623 
	C268.782410,63.383667 261.904236,77.070053 250.908844,88.276443 
	C245.946487,93.334038 239.383682,96.821304 233.055817,101.080338 
	C232.564621,101.139641 232.305969,101.166260 231.821747,101.102028 
	C220.230103,100.973091 209.122696,100.908386 198.153488,100.548119 
	C200.889755,97.972786 203.547409,95.757011 206.075912,93.402565 
	C219.403381,80.992538 230.938934,67.031197 241.277161,52.087910 
	C244.304901,47.711498 246.670441,42.876953 249.339493,38.252392 
	C235.698471,52.839714 222.599762,67.579170 209.294449,82.129723 
	C203.409607,88.565338 197.106232,94.618263 190.744934,100.974945 
	C190.243088,101.376709 189.989136,101.648430 189.735184,101.920158 
M251.342667,33.476284 
	C250.753235,34.430412 250.163788,35.384541 249.574356,36.338673 
	C249.858429,36.491776 250.142502,36.644882 250.426575,36.797989 
	C250.881577,35.853371 251.336578,34.908749 251.342667,33.476284 
z"/>
<path fill="#3AB54A" opacity="1.000000" stroke="none" 
	d="
M169.780701,108.837128 
	C160.291260,109.798714 150.831146,111.185730 141.410675,108.034569 
	C129.586761,104.079430 121.281639,96.302979 115.156227,85.605553 
	C106.971909,71.312454 106.380829,55.808601 107.016541,40.018639 
	C107.036362,39.526402 107.084045,39.011810 107.247490,38.553555 
	C107.626633,37.490589 108.084671,36.455765 108.498466,35.439636 
	C131.810989,33.183949 158.793167,44.513512 169.926453,67.154816 
	C174.518478,76.493439 176.548126,86.701065 173.694000,97.689346 
	C171.976776,98.724548 170.803116,99.346184 169.402832,99.726212 
	C168.860687,98.573235 168.701355,97.565254 168.206345,96.764900 
	C159.957977,83.428429 148.487564,72.924774 137.447723,62.062725 
	C135.364960,60.013504 132.674240,58.582172 130.264038,56.865723 
	C129.991531,58.150230 130.221664,58.595901 130.542847,58.961586 
	C140.411850,70.197655 150.279205,81.435234 160.172638,92.649788 
	C163.258865,96.148140 166.419342,99.580994 169.596863,103.454742 
	C169.692154,105.522820 169.736420,107.179970 169.780701,108.837128 
M127.001991,55.164692 
	C127.237198,55.166367 127.472404,55.168045 127.707603,55.169720 
	C127.680344,54.905663 127.653084,54.641605 127.625832,54.377544 
	C127.277390,54.487804 126.928947,54.598064 127.001991,55.164692 
z"/>
<path fill="#3E3E3E" opacity="1.000000" stroke="none" 
	d="
M39.025684,137.001221 
	C38.705780,134.593246 38.385880,132.185287 38.563911,129.365753 
	C52.659748,128.942368 66.257645,128.930542 79.855545,128.918732 
	C79.902374,138.249695 79.970467,147.580612 79.989273,156.911636 
	C80.004196,164.314636 79.977089,164.321014 72.375191,163.954636 
	C71.559639,163.915344 70.750221,163.748779 69.716675,163.611969 
	C69.033669,160.423477 68.361198,157.284180 67.497993,153.254456 
	C60.708439,163.013977 51.687740,166.319427 40.922474,166.117722 
	C27.433981,165.864975 14.175875,153.050568 12.815319,139.714188 
	C12.124269,132.940414 12.383489,126.529381 14.418558,120.141861 
	C19.251385,104.972961 35.967949,95.981438 51.671616,99.677727 
	C60.745197,101.813431 67.783043,106.208206 71.958458,114.789932 
	C73.492561,117.942986 73.074852,119.495613 69.394394,120.423424 
	C64.426163,121.675850 60.668037,122.430092 56.487961,117.373322 
	C48.476250,107.681274 33.477959,110.962105 29.293365,122.845680 
	C24.048401,137.740540 29.800295,151.610123 44.851227,153.444214 
	C54.872864,154.665436 64.708412,149.488525 64.704239,138.071259 
	C55.954781,137.238342 47.490231,137.119781 39.025684,137.001221 
z"/>
<path fill="#3E3E3E" opacity="1.000000" stroke="none" 
	d="
M169.629456,99.967827 
	C170.803116,99.346184 171.976776,98.724548 173.509140,98.075226 
	C176.006622,98.118156 178.145386,98.188782 180.624451,98.090477 
	C181.665604,99.994484 182.366455,102.067421 183.089661,104.554703 
	C183.072632,122.601845 183.082535,140.235062 182.934174,157.866943 
	C182.914719,160.179947 184.312531,163.988892 179.935715,163.819199 
	C176.528229,163.687103 171.406998,166.430038 170.643494,159.748062 
	C170.541458,158.855194 169.797989,158.035629 169.147339,156.791656 
	C165.122879,162.178375 160.477020,165.272583 153.328339,165.204742 
	C143.331314,165.109909 135.470871,157.752151 134.172287,147.255249 
	C133.093781,138.537399 133.481384,129.650345 140.693710,122.757584 
	C148.623795,115.178833 160.363068,115.799423 167.310364,124.361183 
	C167.692566,124.832191 168.289368,125.129074 169.920517,126.369682 
	C169.920517,120.176361 169.920517,114.980911 169.850616,109.311295 
	C169.736420,107.179970 169.692154,105.522820 169.733749,103.082458 
	C169.756226,101.522118 169.692841,100.744972 169.629456,99.967827 
M165.177261,151.873886 
	C168.876144,148.965378 170.379700,145.089828 169.920578,140.498749 
	C169.191254,133.205795 164.493744,128.745865 158.035889,129.036926 
	C151.569077,129.328400 147.441238,134.214508 146.956772,141.415268 
	C146.411057,149.526917 155.221054,157.676895 165.177261,151.873886 
z"/>
<path fill="#3D3D3D" opacity="1.000000" stroke="none" 
	d="
M388.072662,163.850098 
	C384.605621,163.850098 381.138550,163.850098 377.586212,163.850098 
	C376.812500,161.437103 376.124268,159.290726 375.286407,156.677673 
	C373.548248,158.505386 372.192780,160.347382 370.450836,161.686752 
	C364.444489,166.305130 357.666656,166.231735 351.173248,163.412613 
	C344.656281,160.583267 340.997070,154.812210 340.126495,147.923706 
	C339.513672,143.074753 339.566589,137.901794 340.583191,133.142868 
	C342.118866,125.954430 346.649200,120.248672 353.917358,118.408752 
	C361.640198,116.453728 368.777985,118.347633 374.141693,125.792961 
	C375.048981,124.974266 375.909760,123.765404 375.924744,122.546158 
	C376.020569,114.742485 375.930603,106.936531 375.901733,99.131332 
	C379.648621,99.109886 383.395508,99.088448 387.592407,99.566742 
	C388.052521,121.327690 388.062592,142.588898 388.072662,163.850098 
M374.080872,148.340088 
	C374.616730,146.968033 375.284088,145.631226 375.663086,144.217117 
	C376.689667,140.386703 374.349457,133.249802 371.257477,131.232056 
	C367.436737,128.738708 363.127045,127.753868 359.058411,130.149323 
	C353.527740,133.405563 352.281433,138.899734 353.122253,144.843094 
	C353.723724,149.094620 356.266113,151.753052 360.535187,153.154694 
	C366.103455,154.982910 370.126068,153.054001 374.080872,148.340088 
z"/>
<path fill="#3D3D3D" opacity="1.000000" stroke="none" 
	d="
M198.015274,100.843689 
	C209.122696,100.908386 220.230103,100.973091 231.739807,101.543289 
	C232.095047,102.708038 232.012955,103.366943 232.006302,104.026611 
	C231.913696,113.231651 232.975052,112.946503 222.658539,113.076035 
	C216.767746,113.149994 210.883072,113.709244 204.995636,114.049995 
	C205.294434,118.798714 203.849487,125.351051 206.376938,127.794556 
	C208.962326,130.294083 215.452713,128.639206 220.213028,129.045517 
	C223.300125,129.309006 227.669144,127.311958 228.008240,133.187103 
	C228.368744,139.433487 228.002045,139.969543 221.624359,139.996460 
	C217.631393,140.013321 213.631699,140.148682 209.647308,139.964676 
	C206.240524,139.807327 204.829681,141.056549 204.958511,144.561890 
	C205.147766,149.712173 204.928680,154.876144 205.005615,160.032455 
	C205.045288,162.692657 204.099365,164.008545 201.259949,164.002151 
	C187.350098,163.970779 190.170822,165.066467 190.040771,153.577286 
	C189.848953,136.627792 189.932190,119.675179 189.816742,102.322029 
	C189.989136,101.648430 190.243088,101.376709 191.182114,101.023285 
	C193.916550,100.908958 195.965912,100.876320 198.015274,100.843689 
z"/>
<path fill="#3E3E3E" opacity="1.000000" stroke="none" 
	d="
M326.673553,121.165077 
	C335.991638,127.368263 338.224457,136.406998 336.784668,146.158340 
	C335.511719,154.779663 330.696381,161.625381 321.743469,164.246536 
	C307.710968,168.354935 292.159515,164.640915 287.758972,148.624298 
	C285.404419,140.054382 286.777283,131.643799 292.696411,124.894653 
	C298.383209,118.410339 306.061401,115.778793 314.706360,117.437347 
	C318.680511,118.199799 322.508118,119.726181 326.673553,121.165077 
M320.520691,132.043152 
	C315.615448,127.614937 310.900696,126.855377 306.108307,129.721313 
	C301.652283,132.386108 298.936401,139.547745 300.271545,145.112488 
	C301.492676,150.202133 305.329254,154.061172 309.417572,154.312149 
	C316.746490,154.762085 321.399872,152.046494 323.432037,145.826736 
	C324.988739,141.062134 323.458618,136.717957 320.520691,132.043152 
z"/>
<path fill="#3E3E3E" opacity="1.000000" stroke="none" 
	d="
M234.838135,142.754028 
	C234.332031,131.710617 238.420761,123.554398 248.358444,119.199852 
	C261.799377,113.310204 280.084686,118.813118 283.944153,135.264481 
	C287.183746,149.073654 280.101501,158.733963 272.857056,162.544540 
	C261.716278,168.404663 248.237640,166.385666 240.068375,157.595505 
	C236.334030,153.577316 234.220673,148.833694 234.838135,142.754028 
M252.212128,130.567032 
	C247.936615,134.246582 247.773041,139.116043 248.068634,144.229736 
	C248.398224,149.931931 251.108337,153.053955 257.480560,154.560135 
	C261.724121,155.563171 267.206116,153.128372 269.307495,149.307281 
	C272.251343,143.954285 271.983032,136.092331 268.204742,132.044449 
	C263.762329,127.285004 258.391846,127.391815 252.212128,130.567032 
z"/>
<path fill="#3D3D3D" opacity="1.000000" stroke="none" 
	d="
M116.895966,119.113693 
	C120.647095,119.099205 124.398224,119.084709 128.740036,119.252113 
	C129.503387,119.612831 129.685349,119.781609 129.876633,119.940353 
	C129.912109,134.001511 129.947571,148.062653 129.789093,162.715759 
	C129.411545,163.475464 129.238159,163.653198 129.074997,163.840881 
	C125.618782,163.840881 122.162560,163.840881 118.578072,163.840881 
	C117.829308,161.474228 117.154602,159.341660 116.249390,156.480515 
	C111.695297,163.448730 105.477943,165.755112 97.828911,165.025116 
	C91.087814,164.381775 86.295670,159.634949 86.008820,151.962189 
	C85.978477,140.437057 85.940071,129.783905 85.901665,119.130768 
	C89.648613,119.109230 93.395569,119.087700 97.592270,119.566025 
	C98.300117,128.993271 98.558220,137.920639 98.816315,146.848022 
	C99.234161,151.205353 101.381783,153.778503 105.984550,153.956696 
	C111.164658,154.157272 114.193840,151.955963 116.297905,145.823273 
	C116.683167,136.439789 116.789566,127.776741 116.895966,119.113693 
z"/>
<path fill="#5B5B5B" opacity="1.000000" stroke="none" 
	d="
M388.385742,163.581635 
	C388.062592,142.588898 388.052521,121.327690 388.057678,99.608170 
	C388.360779,99.706032 388.901123,100.262650 388.900177,100.818336 
	C388.864105,121.649994 388.778076,142.481567 388.385742,163.581635 
z"/>
<path fill="#4E4E4E" opacity="1.000000" stroke="none" 
	d="
M294.391785,174.281723 
	C297.892090,174.331909 300.590729,175.521469 299.585266,179.137497 
	C299.240662,180.376694 296.402924,181.712433 294.767120,181.637161 
	C291.437622,181.483994 291.184235,178.298676 294.391785,174.281723 
z"/>
<path fill="#4E4E4E" opacity="1.000000" stroke="none" 
	d="
M318.369934,175.276123 
	C320.383911,175.194672 322.914398,174.821213 323.753021,175.840164 
	C324.629578,176.905258 324.446472,179.664566 323.617981,180.990540 
	C323.149841,181.739700 319.624359,181.757385 318.952606,180.920029 
	C317.980743,179.708511 318.347290,177.423279 318.369934,175.276123 
z"/>
<path fill="#626262" opacity="1.000000" stroke="none" 
	d="
M79.593460,128.598373 
	C66.257645,128.930542 52.659748,128.942368 38.603111,128.936310 
	C38.694138,128.630539 39.244415,128.090530 39.793583,128.091660 
	C52.972919,128.118637 66.152138,128.203583 79.593460,128.598373 
z"/>
<path fill="#626262" opacity="1.000000" stroke="none" 
	d="
M205.464081,114.024750 
	C210.883072,113.709244 216.767746,113.149994 222.658539,113.076035 
	C232.975052,112.946503 231.913696,113.231651 232.006302,104.026611 
	C232.012955,103.366943 232.095047,102.708038 232.224030,101.607513 
	C232.305969,101.166260 232.564621,101.139641 232.690643,101.167793 
	C232.873215,104.659256 232.944519,108.122437 232.972717,111.585983 
	C232.977798,112.209961 232.805450,112.835373 232.636932,113.999496 
	C223.663284,113.999496 214.797897,113.999496 205.464081,114.024750 
z"/>
<path fill="#747474" opacity="1.000000" stroke="none" 
	d="
M85.565414,119.377975 
	C85.940071,129.783905 85.978477,140.437057 86.008041,151.560852 
	C85.669678,151.346161 85.053055,150.660538 85.053749,149.975525 
	C85.064041,139.858688 85.156319,129.741943 85.565414,119.377975 
z"/>
<path fill="#747474" opacity="1.000000" stroke="none" 
	d="
M375.565460,99.378448 
	C375.930603,106.936531 376.020569,114.742485 375.924744,122.546158 
	C375.909760,123.765404 375.048981,124.974266 374.289673,126.094292 
	C374.333923,122.996559 374.852234,119.999199 374.962311,116.986916 
	C375.173615,111.204269 375.153351,105.413155 375.565460,99.378448 
z"/>
<path fill="#5B5B5B" opacity="1.000000" stroke="none" 
	d="
M98.873428,146.392883 
	C98.558220,137.920639 98.300117,128.993271 98.057526,119.607544 
	C98.382019,123.314766 98.836494,127.475960 98.961609,131.647034 
	C99.104362,136.406006 98.953690,141.173782 98.873428,146.392883 
z"/>
<path fill="#868686" opacity="1.000000" stroke="none" 
	d="
M116.540741,119.341370 
	C116.789566,127.776741 116.683167,136.439789 116.375641,145.448334 
	C116.178185,137.052231 116.181847,128.310638 116.540741,119.341370 
z"/>
<path fill="#8E8E8E" opacity="1.000000" stroke="none" 
	d="
M39.232777,137.382751 
	C47.490231,137.119781 55.954781,137.238342 64.707565,137.665924 
	C56.477154,137.904739 47.958511,137.834534 39.232777,137.382751 
z"/>
<path fill="#000000" opacity="1.000000" stroke="none" 
	d="
M195.839325,180.899582 
	C191.917206,182.587585 191.406677,180.203064 190.622742,175.750351 
	C193.102615,179.846161 194.946930,180.880493 196.994019,177.251694 
	C196.691940,178.391693 196.389862,179.531693 195.839325,180.899582 
z"/>
<path fill="#000000" opacity="1.000000" stroke="none" 
	d="
M186.218170,180.041534 
	C185.132645,180.566422 184.079025,180.802170 183.025406,181.037903 
	C183.164078,180.132446 183.302750,179.226990 183.441422,178.321533 
	C184.377640,178.798477 185.313873,179.275421 186.218170,180.041534 
z"/>
<path fill="#000000" opacity="1.000000" stroke="none" 
	d="
M242.507507,179.866425 
	C242.813492,178.555206 243.132050,177.533295 243.450623,176.511383 
	C243.829071,176.544418 244.207504,176.577469 244.585938,176.610504 
	C244.488419,177.995178 244.390900,179.379837 244.293365,180.764526 
	C243.702271,180.561584 243.111176,180.358643 242.507507,179.866425 
z"/>
<path fill="#000000" opacity="1.000000" stroke="none" 
	d="
M259.756470,178.171326 
	C260.228943,177.485672 260.627930,177.076630 261.026947,176.667603 
	C261.217407,178.148712 261.407898,179.629822 261.598358,181.110931 
	C261.086304,181.153839 260.574219,181.196747 260.062164,181.239639 
	C259.935760,180.309082 259.809387,179.378510 259.756470,178.171326 
z"/>
<path fill="#000000" opacity="1.000000" stroke="none" 
	d="
M255.950348,176.107361 
	C256.386017,177.286484 256.593872,178.574753 256.801727,179.863022 
	C256.207947,179.903900 255.614136,179.944778 255.020355,179.985657 
	C255.254410,178.729279 255.488480,177.472900 255.950348,176.107361 
z"/>
<path fill="#000000" opacity="1.000000" stroke="none" 
	d="
M161.199280,176.926117 
	C162.167252,178.340637 163.070480,179.982742 163.973709,181.624847 
	C163.550354,181.789352 163.126999,181.953857 162.703644,182.118362 
	C162.180618,180.463470 161.657578,178.808578 161.199280,176.926117 
z"/>
<path fill="#000000" opacity="1.000000" stroke="none" 
	d="
M285.505615,175.137497 
	C285.913605,176.706421 286.082092,178.225601 286.363281,180.761368 
	C283.934509,176.521835 283.934509,176.521835 285.505615,175.137497 
z"/>
<path fill="#000000" opacity="1.000000" stroke="none" 
	d="
M214.505646,175.137512 
	C214.912491,176.696243 215.079773,178.205246 215.363144,180.761185 
	C212.934540,176.521805 212.934540,176.521805 214.505646,175.137512 
z"/>
<path fill="#000000" opacity="1.000000" stroke="none" 
	d="
M232.275360,179.915344 
	C232.178528,178.716843 232.178528,177.767349 232.178528,176.817841 
	C232.588852,176.783417 232.999191,176.749008 233.409515,176.714600 
	C233.346573,177.989395 233.283951,179.264221 233.200272,180.537674 
	C233.200089,180.540588 232.871094,180.565659 232.729797,180.503220 
	C232.588318,180.440689 232.489639,180.281281 232.275360,179.915344 
z"/>
<path fill="#000000" opacity="1.000000" stroke="none" 
	d="
M239.311630,179.316833 
	C238.905212,178.375931 238.616760,177.251312 238.328293,176.126678 
	C238.929214,176.134766 239.530121,176.142853 240.131027,176.150940 
	C239.897217,177.145004 239.663391,178.139053 239.311630,179.316833 
z"/>
<path fill="#000000" opacity="1.000000" stroke="none" 
	d="
M88.031631,178.614258 
	C88.137581,177.775711 88.245850,177.178329 88.354126,176.580963 
	C88.692474,176.636139 89.030830,176.691330 89.369179,176.746506 
	C89.108276,177.818863 88.847382,178.891220 88.586479,179.963577 
	C88.464600,179.899948 88.267303,179.862274 88.234840,179.767899 
	C88.134209,179.475311 88.096245,179.161194 88.031631,178.614258 
z"/>
<path fill="#000000" opacity="1.000000" stroke="none" 
	d="
M82.055542,177.906357 
	C82.408760,178.335388 82.741280,178.970840 83.073799,179.606308 
	C82.835564,179.697464 82.597336,179.788635 82.359100,179.879791 
	C82.251015,179.290787 82.142929,178.701797 82.055542,177.906357 
z"/>
<path fill="#8E8E8E" opacity="1.000000" stroke="none" 
	d="
M133.433014,180.987747 
	C133.354462,180.063141 133.622498,179.158356 133.890533,178.253571 
	C134.250153,178.399231 134.609756,178.544891 134.969360,178.690552 
	C134.572784,179.462891 134.176208,180.235229 133.433014,180.987747 
z"/>
<path fill="#000000" opacity="1.000000" stroke="none" 
	d="
M42.230179,181.395721 
	C41.615761,181.604584 40.983624,181.650421 40.351482,181.696259 
	C40.381981,181.431229 40.412479,181.166199 40.442978,180.901169 
	C41.032803,181.011673 41.622627,181.122177 42.230179,181.395721 
z"/>
<path fill="#8E8E8E" opacity="1.000000" stroke="none" 
	d="
M224.781616,180.970673 
	C224.162491,180.789017 223.854965,180.571045 223.547440,180.353058 
	C223.831802,180.235641 224.221344,179.943466 224.378159,180.037888 
	C224.685165,180.222702 224.862335,180.623169 224.781616,180.970673 
z"/>
<path fill="#464646" opacity="1.000000" stroke="none" 
	d="
M129.275513,163.795486 
	C129.238159,163.653198 129.411545,163.475464 129.735916,163.185852 
	C129.865372,163.364090 129.731812,163.592773 129.275513,163.795486 
z"/>
<path fill="#464646" opacity="1.000000" stroke="none" 
	d="
M129.823334,119.741852 
	C129.685349,119.781609 129.503387,119.612831 129.205627,119.296280 
	C129.384506,119.153976 129.614334,119.282242 129.823334,119.741852 
z"/>
<path fill="#000000" opacity="1.000000" stroke="none" 
	d="
M198.153488,100.548119 
	C195.965912,100.876320 193.916550,100.908958 191.430023,100.893257 
	C197.106232,94.618263 203.409607,88.565338 209.294449,82.129723 
	C222.599762,67.579170 235.698471,52.839714 249.339493,38.252392 
	C246.670441,42.876953 244.304901,47.711498 241.277161,52.087910 
	C230.938934,67.031197 219.403381,80.992538 206.075912,93.402565 
	C203.547409,95.757011 200.889755,97.972786 198.153488,100.548119 
z"/>
<path fill="#000000" opacity="1.000000" stroke="none" 
	d="
M251.567123,33.720207 
	C251.336578,34.908749 250.881577,35.853371 250.426575,36.797989 
	C250.142502,36.644882 249.858429,36.491776 249.574356,36.338673 
	C250.163788,35.384541 250.753235,34.430412 251.567123,33.720207 
z"/>
<path fill="#000000" opacity="1.000000" stroke="none" 
	d="
M169.402847,99.726212 
	C169.692841,100.744972 169.756226,101.522118 169.682724,102.671547 
	C166.419342,99.580994 163.258865,96.148140 160.172638,92.649788 
	C150.279205,81.435234 140.411850,70.197655 130.542847,58.961586 
	C130.221664,58.595901 129.991531,58.150230 130.264038,56.865723 
	C132.674240,58.582172 135.364960,60.013504 137.447723,62.062725 
	C148.487564,72.924774 159.957977,83.428429 168.206345,96.764900 
	C168.701355,97.565254 168.860687,98.573235 169.402847,99.726212 
z"/>
<path fill="#000000" opacity="1.000000" stroke="none" 
	d="
M126.791245,54.936508 
	C126.928947,54.598064 127.277390,54.487804 127.625824,54.377548 
	C127.653084,54.641605 127.680344,54.905663 127.707611,55.169720 
	C127.472404,55.168045 127.237198,55.166367 126.791245,54.936508 
z"/>
<path fill="#000000" opacity="1.000000" stroke="none" 
	d="
M164.819778,152.023285 
	C155.221054,157.676895 146.411057,149.526917 146.956772,141.415268 
	C147.441238,134.214508 151.569077,129.328400 158.035889,129.036926 
	C164.493744,128.745865 169.191254,133.205795 169.920578,140.498749 
	C170.379700,145.089828 168.876144,148.965378 164.819778,152.023285 
z"/>
<path fill="#000000" opacity="1.000000" stroke="none" 
	d="
M373.848267,148.645584 
	C370.126068,153.054001 366.103455,154.982910 360.535187,153.154694 
	C356.266113,151.753052 353.723724,149.094620 353.122253,144.843094 
	C352.281433,138.899734 353.527740,133.405563 359.058411,130.149323 
	C363.127045,127.753868 367.436737,128.738708 371.257477,131.232056 
	C374.349457,133.249802 376.689667,140.386703 375.663086,144.217117 
	C375.284088,145.631226 374.616730,146.968033 373.848267,148.645584 
z"/>
<path fill="#000000" opacity="1.000000" stroke="none" 
	d="
M320.773315,132.324615 
	C323.458618,136.717957 324.988739,141.062134 323.432037,145.826736 
	C321.399872,152.046494 316.746490,154.762085 309.417572,154.312149 
	C305.329254,154.061172 301.492676,150.202133 300.271545,145.112488 
	C298.936401,139.547745 301.652283,132.386108 306.108307,129.721313 
	C310.900696,126.855377 315.615448,127.614937 320.773315,132.324615 
z"/>
<path fill="#000000" opacity="1.000000" stroke="none" 
	d="
M252.532562,130.358383 
	C258.391846,127.391815 263.762329,127.285004 268.204742,132.044449 
	C271.983032,136.092331 272.251343,143.954285 269.307495,149.307281 
	C267.206116,153.128372 261.724121,155.563171 257.480560,154.560135 
	C251.108337,153.053955 248.398224,149.931931 248.068634,144.229736 
	C247.773041,139.116043 247.936615,134.246582 252.532562,130.358383 
z"/>
</svg>